<?xml version="1.0" encoding="UTF-8" standalone="no"?>
<!-- Created with Inkscape (http://www.inkscape.org/) -->

<svg
   xmlns:dc="http://purl.org/dc/elements/1.1/"
   xmlns:cc="http://creativecommons.org/ns#"
   xmlns:rdf="http://www.w3.org/1999/02/22-rdf-syntax-ns#"
   xmlns:svg="http://www.w3.org/2000/svg"
   xmlns="http://www.w3.org/2000/svg"
   xmlns:sodipodi="http://sodipodi.sourceforge.net/DTD/sodipodi-0.dtd"
   xmlns:inkscape="http://www.inkscape.org/namespaces/inkscape"
   width="267mm"
   height="320mm"
   viewBox="-72.2 -27.5 303.94489 352.30399"
   version="1.1"
   id="svg3777"
   inkscape:version="0.92.4 (5da689c313, 2019-01-14)"
   sodipodi:docname="rco_logo.svg"
   inkscape:export-filename="C:\Users\Pratish Rai\Desktop\rco\man\figures\rco_logo.png"
   inkscape:export-xdpi="19.415619"
   inkscape:export-ydpi="19.415619">
  <defs
     id="defs3771" />
  <sodipodi:namedview
     id="base"
     pagecolor="#ffffff"
     bordercolor="#666666"
     borderopacity="1.0"
     inkscape:pageopacity="0.0"
     inkscape:pageshadow="2"
     inkscape:zoom="0.49497475"
     inkscape:cx="530.35197"
     inkscape:cy="686.6884"
     inkscape:document-units="mm"
     inkscape:current-layer="layer1"
     showgrid="false"
     showborder="false"
     inkscape:window-width="1366"
     inkscape:window-height="705"
     inkscape:window-x="-8"
     inkscape:window-y="-8"
     inkscape:window-maximized="1"
     scale-x="1.10095"
     viewbox-x="-72.2"
     viewbox-width="307.36"
     viewbox-y="-27.5"
     width="269mm" />
  <metadata
     id="metadata3774">
    <rdf:RDF>
      <cc:Work
         rdf:about="">
        <dc:format>image/svg+xml</dc:format>
        <dc:type
           rdf:resource="http://purl.org/dc/dcmitype/StillImage" />
        <dc:title></dc:title>
      </cc:Work>
    </rdf:RDF>
  </metadata>
  <g
     inkscape:label="Layer 1"
     inkscape:groupmode="layer"
     id="layer1"
     transform="translate(0,25.321847)">
    <path
       sodipodi:type="star"
       id="path3715"
       sodipodi:sides="6"
       sodipodi:cx="81.64286"
       sodipodi:cy="143.54167"
       sodipodi:r1="117.0433"
       sodipodi:r2="101.36247"
       sodipodi:arg1="0.49831579"
       sodipodi:arg2="1.0219146"
       inkscape:flatsided="true"
       inkscape:rounded="0"
       inkscape:randomized="0"
       d="M 184.45238,199.48214 84.601749,260.54756 -18.207768,204.60709 -21.166657,87.6012 78.683972,26.535782 181.49349,82.476254 Z"
       style="fill:#005544;stroke-width:0.26458332"
       transform="matrix(1.2385921,0.03062657,-0.02887175,1.1676241,-14.163365,-44.704347)"
       inkscape:export-filename="C:\Users\Pratish Rai\Desktop\path190.png"
       inkscape:export-xdpi="101.11619"
       inkscape:export-ydpi="101.11619" />
    <path
       sodipodi:type="star"
       style="fill:#0066ff;stroke-width:0.26458332"
       id="path3723"
       sodipodi:sides="6"
       sodipodi:cx="91.470253"
       sodipodi:cy="125.39881"
       sodipodi:r1="122.19567"
       sodipodi:r2="105.82456"
       sodipodi:arg1="0.9037847"
       sodipodi:arg2="1.4273835"
       inkscape:flatsided="true"
       inkscape:rounded="0"
       inkscape:randomized="0"
       d="M 167.06549,221.40476 46.12428,238.86918 -29.470956,142.86323 15.875017,29.392862 136.81623,11.928442 212.41146,107.93439 Z"
       transform="matrix(1.0149515,0.14420316,-0.13958562,0.95512829,6.9661442,-7.5215302)"
       inkscape:export-filename="C:\Users\Pratish Rai\Desktop\path190.png"
       inkscape:export-xdpi="101.11619"
       inkscape:export-ydpi="101.11619" />
    <ellipse
       style="fill:#00ffff;stroke-width:0.42207769"
       id="path3743-8"
       cx="126.97202"
       cy="128.08566"
       rx="64.411957"
       ry="51.048477"
       inkscape:export-filename="C:\Users\Pratish Rai\Desktop\path190.png"
       inkscape:export-xdpi="101.11619"
       inkscape:export-ydpi="101.11619" />
    <ellipse
       style="fill:#00ffff;stroke-width:0.42469656"
       id="path3743"
       cx="35.68224"
       cy="128.31778"
       rx="65.21376"
       ry="51.048477"
       inkscape:export-filename="C:\Users\Pratish Rai\Desktop\path190.png"
       inkscape:export-xdpi="101.11619"
       inkscape:export-ydpi="101.11619" />
    <ellipse
       style="fill:#ff0000;stroke-width:0.24547799"
       id="path3827"
       cx="77.235802"
       cy="130.54175"
       rx="28.063299"
       ry="40.357697"
       transform="rotate(-1.7434389)"
       inkscape:export-filename="C:\Users\Pratish Rai\Desktop\path190.png"
       inkscape:export-xdpi="101.11619"
       inkscape:export-ydpi="101.11619" />
    <ellipse
       style="fill:#0b2228;stroke-width:0.26458332"
       id="path3831"
       cx="16.83798"
       cy="127.55112"
       rx="18.441597"
       ry="19.777945"
       inkscape:export-filename="C:\Users\Pratish Rai\Desktop\path190.png"
       inkscape:export-xdpi="101.11619"
       inkscape:export-ydpi="101.11619" />
    <ellipse
       style="fill:#0b2228;stroke-width:0.26458332"
       id="path3833"
       cx="36.883194"
       cy="151.07083"
       rx="1.0690781"
       ry="4.2763124"
       inkscape:export-filename="C:\Users\Pratish Rai\Desktop\path190.png"
       inkscape:export-xdpi="101.11619"
       inkscape:export-ydpi="101.11619" />
    <ellipse
       style="fill:#afe9dd;stroke-width:0.26458332"
       id="path3851"
       cx="12.828921"
       cy="129.42201"
       rx="35.279575"
       ry="32.874149"
       inkscape:export-filename="C:\Users\Pratish Rai\Desktop\path190.png"
       inkscape:export-xdpi="101.11619"
       inkscape:export-ydpi="101.11619" />
    <ellipse
       style="fill:#ff6600;stroke-width:0.22717996"
       id="path3851-8"
       cx="12.294386"
       cy="129.68927"
       rx="30.468723"
       ry="28.063299"
       inkscape:transform-center-y="4.9523421"
       inkscape:export-filename="C:\Users\Pratish Rai\Desktop\path190.png"
       inkscape:export-xdpi="101.11619"
       inkscape:export-ydpi="101.11619" />
    <path
       style="fill:#ff0000;stroke:#000000;stroke-width:0.26458332px;stroke-linecap:butt;stroke-linejoin:miter;stroke-opacity:1"
       d="m 22.005072,113.67446 0.383793,-5.06083 -6.690405,-2.10885 -5.155868,0.3052 -4.7255814,0.70045 -3.5748284,0.63042 -2.76679999,0.79052 6.71937999,8.10278 3.9525798,-1.77866 2.7668,-0.55786 3.75495,-0.82554 2.37155,-0.19763 z"
       id="path3934"
       inkscape:connector-curvature="0"
       inkscape:export-filename="C:\Users\Pratish Rai\Desktop\path190.png"
       inkscape:export-xdpi="101.11619"
       inkscape:export-ydpi="101.11619"
       sodipodi:nodetypes="ccccccccccccc" />
    <path
       style="fill:#ffff00;stroke:#000000;stroke-width:0.26458332px;stroke-linecap:butt;stroke-linejoin:miter;stroke-opacity:1"
       d="m 6.1947622,117.03415 -4.545459,3.26963 -2.8943962,3.91504 -3.142043,4.08017 -0.8805708,2.56918 -7.3122702,-4.54547 1.97629,-4.94072 2.1739202,-3.95258 1.77866,-2.7668 3.16206,-3.16206 2.96443,-2.56918 z"
       id="path3951"
       inkscape:connector-curvature="0"
       inkscape:export-filename="C:\Users\Pratish Rai\Desktop\path190.png"
       inkscape:export-xdpi="101.11619"
       inkscape:export-ydpi="101.11619"
       sodipodi:nodetypes="cccccccccccc" />
    <path
       style="fill:#00ff00;stroke:#000000;stroke-width:0.26458332px;stroke-linecap:butt;stroke-linejoin:miter;stroke-opacity:1"
       d="m -5.2677068,130.86817 -0.9132169,4.32483 -0.033046,3.02226 0.08392,2.56782 0.26854,2.16631 0.657094,1.95587 1.097369,3.32562 1.032802,1.35039 1.1238421,1.91393 -3.9408061,-3.40374 -3.104885,-4.24868 -1.6834833,-3.10873 -1.103824,-3.52313 -0.51772,-3.74004 -0.0904,-2.76532 -0.071,-2.17276 -0.26207,-1.96878 z"
       id="path3970"
       inkscape:connector-curvature="0"
       inkscape:transform-center-x="-2.9606072"
       inkscape:transform-center-y="8.7296307"
       inkscape:export-filename="C:\Users\Pratish Rai\Desktop\path190.png"
       inkscape:export-xdpi="101.11619"
       inkscape:export-ydpi="101.11619"
       sodipodi:nodetypes="cccccccccccccccccc" />
    <ellipse
       style="fill:#000000;stroke-width:0.16499668"
       id="path3989"
       cx="11.225313"
       cy="133.43103"
       rx="4.2763124"
       ry="3.7417736"
       inkscape:export-filename="C:\Users\Pratish Rai\Desktop\path190.png"
       inkscape:export-xdpi="101.11619"
       inkscape:export-ydpi="101.11619" />
    <rect
       style="fill:#000000;stroke-width:0.16485144"
       id="rect3991"
       width="4.1738191"
       height="23.280371"
       x="56.229275"
       y="104.83262"
       transform="matrix(0.98460143,0.17481427,-0.3537459,0.93534156,0,0)"
       inkscape:transform-center-x="0.49625257"
       inkscape:transform-center-y="7.7813886"
       inkscape:export-filename="C:\Users\Pratish Rai\Desktop\path190.png"
       inkscape:export-xdpi="101.11619"
       inkscape:export-ydpi="101.11619" />
    <path
       style="fill:#d7e3f4;stroke:#000000;stroke-width:0.06108506px;stroke-linecap:butt;stroke-linejoin:miter;stroke-opacity:1"
       d="m 64.075221,102.18107 c -1.227462,1.9302 -1.444075,2.42834 -1.444075,2.42834 l -0.144407,1.7434 0.505424,1.68118 0.866448,1.12078 0.866442,1.12079 1.516277,0.87173 1.516282,0.80938 1.660686,0.62269 1.660691,0.74717 7.798001,0.74721 2.888151,-0.18678 6.787153,-1.6189 2.310518,-1.43208 1.732892,-2.24156 0.433224,-2.42834 -0.433224,-2.92648 -1.371869,-1.8057 -2.599336,-1.74343 -2.888152,-1.058511 -4.548837,-0.809437 -5.631893,-0.06203 -6.137319,1.245288 -3.465782,1.74344 z"
       id="path91-3"
       inkscape:connector-curvature="0"
       inkscape:export-filename="C:\Users\Pratish Rai\Desktop\path190.png"
       inkscape:export-xdpi="101.11619"
       inkscape:export-ydpi="101.11619" />
    <path
       inkscape:connector-curvature="0"
       id="use147"
       d="m 70.25113,103.46584 c -0.850276,1.34676 -1.000322,1.69428 -1.000322,1.69428 l -0.100052,1.21643 0.350111,1.17299 0.600198,0.78198 0.600193,0.78196 1.050336,0.60819 1.050341,0.56485 1.150374,0.43445 1.15037,0.52132 5.401748,0.52132 2.000646,-0.13059 4.701521,-1.12951 1.600517,-0.99922 1.200389,-1.56399 0.300096,-1.69426 -0.300096,-2.04187 -0.950309,-1.25991 -1.800579,-1.21638 -2.00065,-0.73857 -3.151016,-0.56472 -3.901265,-0.0418 -4.251372,0.86889 -2.400779,1.21644 z"
       style="fill:#2b0000;stroke:#000000;stroke-width:0.04246685px;stroke-linecap:butt;stroke-linejoin:miter;stroke-opacity:1"
       inkscape:transform-center-x="0.22477918"
       inkscape:transform-center-y="4.1248666"
       inkscape:export-filename="C:\Users\Pratish Rai\Desktop\path190.png"
       inkscape:export-xdpi="101.11619"
       inkscape:export-ydpi="101.11619" />
    <text
       xml:space="preserve"
       style="font-style:normal;font-weight:normal;font-size:10.58333302px;line-height:1.25;font-family:sans-serif;letter-spacing:0px;word-spacing:0px;fill:#000000;fill-opacity:1;stroke:none;stroke-width:0.26458332"
       x="76.918159"
       y="127.66666"
       id="text4394"><tspan
         sodipodi:role="line"
         id="tspan4392"
         x="76.918159"
         y="137.32216"
         style="stroke-width:0.26458332" /></text>
    <text
       xml:space="preserve"
       style="font-style:normal;font-weight:normal;font-size:10.58333302px;line-height:1.25;font-family:sans-serif;letter-spacing:0px;word-spacing:0px;fill:#000000;fill-opacity:1;stroke:none;stroke-width:0.26458332"
       x="66.712799"
       y="131.8244"
       id="text4410"
       inkscape:export-filename="C:\Users\Pratish Rai\Desktop\path190.png"
       inkscape:export-xdpi="101.11619"
       inkscape:export-ydpi="101.11619"><tspan
         sodipodi:role="line"
         id="tspan4408"
         x="66.712799"
         y="131.8244"
         style="stroke-width:0.26458332">Code</tspan></text>
    <text
       xml:space="preserve"
       style="font-style:normal;font-weight:normal;font-size:9.85229492px;line-height:1.25;font-family:sans-serif;letter-spacing:0px;word-spacing:0px;fill:#000000;fill-opacity:1;stroke:none;stroke-width:0.24630736"
       x="63.018547"
       y="138.02495"
       id="text4414"
       transform="scale(0.93092551,1.0741998)"
       inkscape:export-filename="C:\Users\Pratish Rai\Desktop\path190.png"
       inkscape:export-xdpi="101.11619"
       inkscape:export-ydpi="101.11619"><tspan
         sodipodi:role="line"
         id="tspan4412"
         x="63.018547"
         y="138.02495"
         style="stroke-width:0.24630736">Optimiser</tspan></text>
    <path
       style="fill:#0000ff;stroke:#000000;stroke-width:0.03928938px;stroke-linecap:butt;stroke-linejoin:miter;stroke-opacity:1"
       d="m 76.493903,102.8568 c -0.04052,14.69161 0,14.69161 0,14.69161 l 4.010524,-0.0459 v -5.7389 l 1.701437,0.41319 v 0 l 2.633172,5.3716 4.294098,-0.13774 -2.876235,-5.73891 -0.52663,-0.41323 -1.053274,-0.36725 1.944497,-0.78052 0.972249,-1.14777 0.405103,-1.6069 0.04052,-1.1937 -0.283573,-1.10184 -0.567144,-1.10188 -1.215311,-0.82642 -1.377352,-0.45909 z"
       id="use171"
       inkscape:connector-curvature="0"
       inkscape:export-filename="C:\Users\Pratish Rai\Desktop\path190.png"
       inkscape:export-xdpi="101.11619"
       inkscape:export-ydpi="101.11619"
       sodipodi:nodetypes="cccccccccccccccccccc" />
    <path
       inkscape:connector-curvature="0"
       id="path173"
       d="m 79.301644,108.33054 c -0.240162,-3.49615 -0.240162,-3.49615 -0.240162,-3.49615 l 5.443672,0.13475 0.880596,0.53787 0.720485,1.41191 -0.480322,0.94123 -0.640433,0.33636 z"
       style="fill:#1c1f24;stroke:#000000;stroke-width:0.06683706px;stroke-linecap:butt;stroke-linejoin:miter;stroke-opacity:1"
       inkscape:export-filename="C:\Users\Pratish Rai\Desktop\path190.png"
       inkscape:export-xdpi="101.11619"
       inkscape:export-ydpi="101.11619" />
    <path
       style="fill:#00ffff;stroke-width:0.50507629"
       d="m 138.1794,585.72366 c -1.62319,-2.5739 -1.48615,-3.04439 1.70481,-5.85318 1.66605,-1.46652 3.02563,-2.3689 3.02129,-2.00528 -0.0189,1.58043 -1.43716,6.53971 -2.20577,7.71275 -1.0347,1.57916 -1.59589,1.6116 -2.52033,0.14571 z"
       id="path186"
       inkscape:connector-curvature="0"
       transform="scale(0.26458333)"
       inkscape:export-filename="C:\Users\Pratish Rai\Desktop\path190.png"
       inkscape:export-xdpi="101.11619"
       inkscape:export-ydpi="101.11619" />
    <ellipse
       style="fill:#00ffff;stroke-width:0.20065874"
       id="path793"
       cx="-83.043137"
       cy="135.25328"
       rx="1.8898809"
       ry="1.0394346"
       transform="rotate(-45.189727)"
       inkscape:transform-center-x="0.8410115"
       inkscape:transform-center-y="0.77223322"
       inkscape:export-filename="C:\Users\Pratish Rai\Desktop\path190.png"
       inkscape:export-xdpi="101.11619"
       inkscape:export-ydpi="101.11619" />
    <ellipse
       style="fill:#000000;stroke-width:0.16486074"
       id="path214"
       cx="137.10925"
       cy="104.83321"
       rx="27.528761"
       ry="4.5435824"
       inkscape:export-filename="C:\Users\Pratish Rai\Desktop\path190.png"
       inkscape:export-xdpi="101.11619"
       inkscape:export-ydpi="101.11619" />
    <ellipse
       style="fill:#000000;stroke-width:0.16486074"
       id="path214-5"
       cx="138.44562"
       cy="156.41621"
       rx="27.528765"
       ry="4.5435829"
       inkscape:export-filename="C:\Users\Pratish Rai\Desktop\path190.png"
       inkscape:export-xdpi="101.11619"
       inkscape:export-ydpi="101.11619" />
    <path
       style="fill:#ffffff;stroke:#000000;stroke-width:0.26458332px;stroke-linecap:butt;stroke-linejoin:miter;stroke-opacity:1"
       d="m 153.04471,106.23418 -0.82738,3.30953 -0.96528,2.75795 -1.37897,2.62005 -0.2758,1.10317 -0.41369,0.55159 -0.4137,0.55159 -0.55158,0.1379 -1.10318,0.82738 -0.41369,0.82739 -1.58582,1.37897 -1.03423,0.55159 -1.10318,1.37897 -0.68948,0.75844 -1.17213,1.17212 -0.68949,1.24108 -0.55159,0.96528 -0.48264,1.24107 -0.13789,0.96528 0.27579,1.37898 0.55159,1.17212 0.68949,0.89633 0.82738,1.03423 1.10318,1.31003 1.03423,0.89633 0.55158,0.48264 0.89634,0.55159 0.68948,0.68949 1.24108,1.10317 0.96528,1.03423 1.03423,1.24108 0.48264,0.89633 0.62054,1.10318 0.68948,1.58582 0.62054,1.31002 0.68949,2.06846 0.34474,1.58582 0.27579,1.86161 v 1.86161 l -0.20684,0.89634 -1.10318,0.55159 -2.68899,0.96528 -1.31003,0.13789 -1.24107,0.20685 -1.44793,0.34474 -1.03423,0.20685 -1.86161,0.069 -1.44792,0.069 -1.65477,0.13789 h -1.65476 -1.65477 l -1.31002,0.069 -1.58582,-0.34474 -1.86161,-0.1379 -1.99951,-0.34474 -1.72372,-0.34475 -1.72372,-0.48264 -1.24107,-0.75843 -1.24108,-0.68949 v -1.03423 -1.58582 l 0.1379,-1.65476 0.20685,-1.58582 0.68948,-1.79266 0.62054,-1.86162 1.24108,-2.20635 1.44792,-2.13741 1.93056,-1.93056 1.79266,-1.58582 1.51687,-0.96528 1.44792,-1.24108 1.17213,-1.24107 1.17213,-1.44792 0.34474,-1.37897 -0.27579,-1.37898 -0.069,-1.24107 -1.03423,-1.65477 -0.82739,-0.96528 -1.10317,-1.51687 -1.17213,-1.10318 -1.37897,-1.03423 -0.82739,-0.68948 -1.10317,-1.03423 -1.10318,-1.10318 -1.03423,-1.03423 -0.48264,-0.96528 -0.62054,-1.17213 -0.96528,-1.72371 -0.48264,-1.37898 -0.68949,-1.79266 -0.41369,-1.79266 -0.20685,-1.72372 v -0.75843 l 2.20636,0.82738 1.51687,0.34474 1.37897,0.20685 1.79267,0.27579 2.1374,0.41369 h 1.44793 l 2.1374,0.069 h 1.99951 l 1.93056,-0.13789 1.51687,0.0689 h 1.51687 l 1.93056,-0.27579 2.06846,-0.20685 3.51639,-0.55159 1.9995,-0.89633 1.10318,-0.34474 z"
       id="path233"
       inkscape:connector-curvature="0"
       inkscape:export-filename="C:\Users\Pratish Rai\Desktop\path190.png"
       inkscape:export-xdpi="101.11619"
       inkscape:export-ydpi="101.11619" />
    <path
       style="fill:#d45500;stroke:#000000;stroke-width:0.27351427px;stroke-linecap:butt;stroke-linejoin:miter;stroke-opacity:1"
       d="m 128.30818,115.67796 0.86886,-0.21049 0.69992,-0.15786 0.43443,-0.10521 0.69993,-0.13156 0.74818,-0.15785 0.94128,-0.13157 0.86887,-0.10521 0.72405,-0.0789 0.91714,-0.10521 1.06196,-0.0264 0.9654,-0.0264 h 1.20676 1.15849 l 1.20676,0.0789 0.79645,0.0527 0.86887,0.0789 1.03782,0.0789 1.08608,0.2368 1.03781,0.21049 0.96541,0.15788 0.84474,0.36835 0.4827,0.42099 0.19307,0.4473 -0.26549,0.73671 -0.38616,0.44729 -0.50682,0.68411 -0.62753,0.60516 -0.89301,0.81566 -0.69991,0.63148 -0.79646,0.76303 -0.893,0.76303 -0.62752,0.73673 -0.65165,0.81565 -0.57924,0.6841 -0.55511,0.49992 -0.45858,0.86826 -0.50682,0.84198 -0.43445,1.02615 -0.57924,1.94705 v 0 l -0.21721,1.10509 -0.14481,1.18401 0.0724,0.92091 v 1.21032 l 0.10814,16.10181 0.007,1.06791 0.003,0.40224 0.0175,2.60896 h -0.98027 c 6.6e-4,-4.25346 -0.0838,-7.92898 -0.0724,-11.86649 l 0.004,-9.3932 -0.0278,-1.34187 -0.0482,-0.73674 -0.12066,-0.78934 -0.24137,-0.97352 -0.4827,-1.28926 -0.4827,-1.26295 -0.67578,-0.86829 -0.74819,-0.92091 -0.72406,-1.05245 -0.65165,-0.76305 -1.01369,-0.97351 -0.94127,-0.81566 -0.84473,-0.84198 -0.94127,-0.84195 -0.7482,-0.81566 -0.8206,-0.9209 -0.19307,-0.68411 0.0724,-0.81565 z"
       id="path272"
       inkscape:connector-curvature="0"
       sodipodi:nodetypes="ccccccccccccccccccccccccccccccccccccccccccccccccccccccccccccccccccccccc"
       inkscape:export-filename="C:\Users\Pratish Rai\Desktop\path190.png"
       inkscape:export-xdpi="101.11619"
       inkscape:export-ydpi="101.11619" />
    <path
       style="fill:#d45500;stroke:#000000;stroke-width:0.26458332px;stroke-linecap:butt;stroke-linejoin:miter;stroke-opacity:1"
       d="m 125.71421,154.29264 0.56696,-0.14174 0.56697,-0.18899 0.77957,-0.16536 0.66146,-0.0945 0.8032,-0.0709 0.82682,-0.0945 0.77958,-0.0472 0.7087,-0.0945 0.70871,-0.0236 0.63783,-0.0472 0.8032,-0.0473 h 0.66146 l 0.68508,-0.0472 h 0.68509 0.56696 l 0.51972,-0.0472 h 0.68508 l 0.92132,0.0236 h 0.54334 0.63783 l 0.99219,0.0236 0.44885,0.0472 h 0.7087 l 0.75595,0.0236 0.77958,0.0236 0.82682,0.0709 h 0.66146 l 0.63783,0.0709 0.92132,0.0945 0.89769,0.11812 0.77959,0.0472 0.47246,0.14174 0.82683,0.18899 0.44883,0.14174 0.44887,0.21261 0.0945,0.18899 v 0.18899 l -0.18899,0.14174 -0.18899,0.0945 -0.63783,0.11812 -0.68509,0.18899 -1.0158,0.18899 -0.96857,0.11812 -1.2048,0.16536 -1.39378,0.0473 -3.47266,0.16536 -2.14974,0.0236 h -2.45684 l -1.96075,-0.11812 -1.2048,0.0236 -0.99219,-0.11812 -1.25205,-0.0945 -0.85044,-0.0709 -0.8977,-0.0709 -1.01581,-0.21261 -0.85044,-0.11812 -0.99219,-0.33073 -0.44885,-0.25986 0.0473,-0.21261 z"
       id="path300"
       inkscape:connector-curvature="0"
       sodipodi:nodetypes="ccccccccccccccccccccccccccccccccccccccccccccccccccccccccccccc"
       inkscape:export-filename="C:\Users\Pratish Rai\Desktop\path190.png"
       inkscape:export-xdpi="101.11619"
       inkscape:export-ydpi="101.11619" />
    <ellipse
       style="fill:#d45500;stroke-width:0.00897144"
       id="path270"
       cx="138.04439"
       cy="153.21243"
       rx="0.3590025"
       ry="0.52348262"
       inkscape:export-filename="C:\Users\Pratish Rai\Desktop\path190.png"
       inkscape:export-xdpi="101.11619"
       inkscape:export-ydpi="101.11619" />
  </g>
</svg>
